# xmcd
#
# Track frame offsets: 
#        150
#        11560
#        28243
#        38731
#        50826
#        61508
#        72792
#        89765
#        101596
#        112051
#        124893
#        140159
#        148552
#        154886
#        162854
#        174243
#        187886
#        205227
#        217121
#        233875
#
# Disc length: 3304 seconds
#
# Revision: 1
# Processed by: cddbd v1.5.2PL0 Copyright (c) Steve Scherf et al.
# Submitted via: ExactAudioCopy v1.0b3
#
DISCID=260ce614
DTITLE=varios - Grinzing (Heurigenlieder - Wienerlieder)
DYEAR=1994
DGENRE=Folklore
TTITLE0=Waltraud Haas - Beim Heurigen (Potpourri)
TTITLE1=Peter Alexander - Fiakerlied
TTITLE2=Heinz Conrads - Schön is so a Ringelspiel
TTITLE3=G Scheyrer and K Friedrich - Im Prater blühn wieder die Bäume
TTITLE4=Erich Kunz - Mei Muaterl war a Weanerin
TTITLE5=Zitherduo Karl and Erika Swoboda - Ich kenn ein kleines Wegerl i
TTITLE5=m Helenenthal
TTITLE6=Horst Chmela - Einer hat immer das Bummerl
TTITLE7=Herbert Prikopa - Frauenkäferl
TTITLE8=Erich Kunz - Der Wiener Troubadour
TTITLE9=Ferry Gruber - Ja, ja der Wein ist guat
TTITLE10=Peter Weck - Der alte Kanzleirat
TTITLE11=E Bieler and R Hofstätter - Draußen im Sievering
TTITLE12=Heinz Conrads - 20, 30 Jahrln jünger sollt ma sein...
TTITLE13=Fritz Muliar - Mir is alles ans
TTITLE14=Marika Sobotka - In Grinzing am Abend
TTITLE15=Rudi Luksch - Tschecheranten-Lied
TTITLE16=Wiener Serenaden Orchester - Donauwalzer op.314
TTITLE17=Viktor Poslusny - Ich möcht an Wein auf Krankenschein
TTITLE18=Heinz Conrads - Der Wurschtl
TTITLE19=Hansl Schmid - Mach i amol die Äugerln zua
EXTD=
EXTT0=
EXTT1=
EXTT2=
EXTT3=
EXTT4=
EXTT5=
EXTT6=
EXTT7=
EXTT8=
EXTT9=
EXTT10=
EXTT11=
EXTT12=
EXTT13=
EXTT14=
EXTT15=
EXTT16=
EXTT17=
EXTT18=
EXTT19=
PLAYORDER=
